<svg xmlns="http://www.w3.org/2000/svg" xmlns:xlink="http://www.w3.org/1999/xlink" width="2000" zoomAndPan="magnify" viewBox="0 0 1500 1499.999933" height="2000" preserveAspectRatio="xMidYMid meet" version="1.0"><defs><clipPath id="8d9a338aaf"><path d="M 196.949219 86 L 1303.199219 86 L 1303.199219 1414 L 196.949219 1414 Z M 196.949219 86 " clip-rule="nonzero"/></clipPath></defs><g clip-path="url(#8d9a338aaf)"><path fill="#004aad" d="M 196.949219 943.988281 C 196.949219 818.066406 230.980469 715.964844 285.4375 637.6875 C 285.4375 792.539062 322.871094 846.992188 404.554688 846.992188 C 459.007812 846.992188 515.164062 806.152344 515.164062 736.382812 C 515.164062 673.421875 472.621094 559.40625 472.621094 436.886719 C 472.621094 314.363281 513.460938 183.335938 680.226562 86.339844 C 642.789062 185.035156 627.476562 268.417969 627.476562 336.488281 C 627.476562 516.867188 736.382812 598.546875 833.378906 598.546875 C 911.65625 598.546875 993.339844 547.496094 993.339844 399.449219 C 1046.089844 457.304688 1069.914062 523.671875 1069.914062 590.039062 C 1069.914062 695.542969 1012.058594 789.136719 1012.058594 874.21875 C 1012.058594 943.988281 1068.210938 984.832031 1122.667969 984.832031 C 1219.664062 984.832031 1248.589844 898.042969 1248.589844 755.101562 C 1277.519531 804.449219 1303.046875 901.449219 1303.046875 984.832031 C 1303.046875 1233.277344 1068.210938 1413.65625 806.152344 1413.65625 C 1027.371094 1330.273438 1068.210938 1219.664062 1068.210938 1095.441406 C 1013.757812 1192.4375 957.601562 1206.050781 930.375 1206.050781 C 763.609375 1206.050781 943.988281 887.832031 653 666.613281 C 700.648438 768.714844 719.367188 857.203125 719.367188 928.675781 C 719.367188 1081.828125 635.984375 1165.210938 556.003906 1165.210938 C 487.9375 1165.210938 419.871094 1110.753906 392.640625 995.039062 C 392.640625 1156.699219 440.289062 1309.851562 653 1413.65625 C 321.171875 1359.203125 196.949219 1151.59375 196.949219 943.988281 Z M 196.949219 943.988281 " fill-opacity="1" fill-rule="nonzero"/></g></svg>